<?xml version="1.0" encoding="utf-8"?>
<!-- Generator: Adobe Illustrator 16.0.0, SVG Export Plug-In . SVG Version: 6.00 Build 0)  -->
<!DOCTYPE svg PUBLIC "-//W3C//DTD SVG 1.1//EN" "http://www.w3.org/Graphics/SVG/1.1/DTD/svg11.dtd">
<svg version="1.1" id="Layer_1" xmlns="http://www.w3.org/2000/svg" xmlns:xlink="http://www.w3.org/1999/xlink" x="0px" y="0px"
	 width="1920px" height="1080px" viewBox="0 0 1920 1080" enable-background="new 0 0 1920 1080" xml:space="preserve">
<path fill="#231F20" stroke="#231F20" stroke-miterlimit="10" d="M100-80c0-11.046-8.955-20-20-20H-80c-11.047,0-20,8.954-20,20V80
	c0,11.045,8.953,20,20,20H80c11.045,0,20-8.955,20-20V-80z"/>
<path fill="#231F20" stroke="#231F20" stroke-width="0.9801" stroke-miterlimit="10" d="M80.545-95.419
	c0-13.174-7.212-23.854-16.108-23.854H-64.436c-8.897,0-16.109,10.679-16.109,23.854V95.419c0,13.173,7.212,23.854,16.109,23.854
	H64.437c8.896,0,16.108-10.681,16.108-23.854V-95.419z"/>
</svg>
