<?xml version="1.0" encoding="utf-8"?>
<!-- Generator: Adobe Illustrator 16.0.0, SVG Export Plug-In . SVG Version: 6.00 Build 0)  -->
<!DOCTYPE svg PUBLIC "-//W3C//DTD SVG 1.1//EN" "http://www.w3.org/Graphics/SVG/1.1/DTD/svg11.dtd">
<svg version="1.1" id="Layer_1" xmlns="http://www.w3.org/2000/svg" xmlns:xlink="http://www.w3.org/1999/xlink" x="0px" y="0px"
	 width="1920px" height="1080px" viewBox="0 0 1920 1080" enable-background="new 0 0 1920 1080" xml:space="preserve">
<path fill="#231F20" stroke="#231F20" stroke-miterlimit="10" d="M1257.414,415.363c0,11.045-8.953,20-20,20h-160
	c-11.046,0-20-8.955-20-20V291.886c0-11.046,8.954-20,20-20l160-36.524c11.047,0,20,8.954,20,20V415.363z"/>
<path fill="#231F20" stroke="#231F20" stroke-miterlimit="10" d="M650.711,415.183c0,11.046,8.953,20,20,20h160
	c11.046,0,20-8.954,20-20V291.705c0-11.046-8.954-20-20-20l-160-36.524c-11.047,0-20,8.954-20,20V415.183z"/>
</svg>
