<?xml version="1.0" encoding="utf-8"?>
<!-- Generator: Adobe Illustrator 15.0.2, SVG Export Plug-In . SVG Version: 6.00 Build 0)  -->
<!DOCTYPE svg PUBLIC "-//W3C//DTD SVG 1.1//EN" "http://www.w3.org/Graphics/SVG/1.1/DTD/svg11.dtd">
<svg version="1.1" id="Layer_1" xmlns="http://www.w3.org/2000/svg" xmlns:xlink="http://www.w3.org/1999/xlink" x="0px" y="0px"
	 width="1920px" height="1080px" viewBox="0 0 1920 1080" enable-background="new 0 0 1920 1080" xml:space="preserve">
<rect fill="none" stroke="#231F20" stroke-miterlimit="10" width="1920" height="1080"/>
<path fill="#231F20" stroke="#231F20" stroke-miterlimit="10" d="M1168.088,470.909c0,11.045-8.955,20-20,20h-160
	c-11.047,0-20-8.955-20-20v-160c0-11.046,8.953-20,20-20h160c11.045,0,20,8.954,20,20V470.909z"/>
<path fill="#231F20" stroke="#231F20" stroke-width="0.9801" stroke-miterlimit="10" d="M720.636,486.328
	c0,13.174-7.212,23.855-16.109,23.855H575.654c-8.897,0-16.109-10.682-16.109-23.855V295.49c0-13.175,7.212-23.854,16.109-23.854
	h128.873c8.897,0,16.109,10.68,16.109,23.854V486.328z"/>
</svg>
